<svg xmlns="http://www.w3.org/2000/svg" width="1216" height="243" viewBox="0 0 1216 243" version="1.1">
	<path d="M 725.729 49.132 C 724.778 49.664, 724 51.202, 724 52.550 C 724 54.736, 724.425 55, 727.941 55 C 730.109 55, 732.191 55.500, 732.569 56.112 C 732.947 56.724, 733.311 63.743, 733.378 71.711 C 733.508 87.174, 732.889 89.052, 728.160 87.551 C 727.189 87.243, 725.519 87.637, 724.448 88.428 C 720.625 91.249, 723.978 92.075, 738.068 91.780 C 749.911 91.533, 751.514 91.296, 751.811 89.750 C 752.094 88.277, 751.376 88, 747.273 88 C 740.169 88, 740 87.616, 740 71.500 C 740 55.573, 740.233 55, 746.700 55 C 750.588 55, 751 54.767, 751 52.567 C 751 49.421, 749.516 49.018, 738.336 49.131 C 733.296 49.182, 728.786 48.986, 728.315 48.694 C 727.843 48.403, 726.679 48.600, 725.729 49.132 M 208.685 50.593 C 207.136 51.440, 204.099 53.957, 201.935 56.187 L 198 60.241 198 71.116 L 198 81.990 202.901 86.995 L 207.802 92 225.970 92 L 244.139 92 243.820 89.750 C 243.507 87.548, 243.159 87.489, 227.473 87 C 211.944 86.516, 211.338 86.416, 208.008 83.807 C 204.770 81.269, 204.549 80.708, 204.173 74.063 C 203.629 64.427, 204.508 60.978, 208.265 58 C 211.292 55.601, 212.046 55.492, 226.960 55.290 C 235.507 55.174, 242.867 55.062, 243.316 55.040 C 243.765 55.018, 243.990 53.763, 243.816 52.250 L 243.500 49.500 227.500 49.277 C 214.668 49.098, 210.942 49.358, 208.685 50.593 M 280.232 52.750 C 278.618 54.813, 276.586 57.850, 275.717 59.500 C 274.849 61.150, 273.429 63.850, 272.562 65.500 C 271.695 67.150, 269.887 70.300, 268.544 72.500 C 267.202 74.700, 265.669 77.440, 265.138 78.588 C 264.607 79.736, 262.820 82.659, 261.168 85.083 C 258.988 88.279, 258.448 89.835, 259.204 90.745 C 261.262 93.226, 263.852 92.009, 267.065 87.050 C 270.847 81.213, 271.147 81.128, 287.453 81.224 C 300.572 81.302, 302.623 82.130, 304.929 88.277 C 306.107 91.416, 309.823 93.315, 311.750 91.762 C 313.549 90.313, 313.424 89.902, 308.952 82.542 C 306.726 78.877, 304.453 74.894, 303.901 73.689 C 303.349 72.485, 301.799 69.700, 300.457 67.500 C 299.115 65.300, 297.433 62.375, 296.719 61 C 290.040 48.132, 285.591 45.905, 280.232 52.750 M 332.485 51.250 C 332.181 52.487, 332.060 62.050, 332.216 72.500 C 332.489 90.739, 332.580 91.500, 334.500 91.500 C 336.230 91.500, 336.568 90.667, 337 85.332 C 337.275 81.940, 337.838 78.827, 338.252 78.414 C 339.522 77.145, 358.283 77.599, 361 78.964 C 362.375 79.655, 365.652 82.871, 368.282 86.110 C 372.131 90.850, 373.633 92, 375.973 92 C 380.788 92, 380.402 90.319, 374.085 83.763 L 368.062 77.511 372.781 73.299 C 377.306 69.261, 377.500 68.865, 377.500 63.679 C 377.500 58.886, 377.136 57.930, 374.308 55.288 C 367.617 49.037, 367.470 49, 349.554 49 C 333.257 49, 333.031 49.030, 332.485 51.250 M 409.413 50.792 C 400.222 55.877, 399.153 58.209, 399.424 72.580 C 399.634 83.736, 399.949 84.601, 405.388 88.916 L 409.275 92 426.578 92 C 444.063 92, 446.489 91.500, 443.934 88.421 C 442.929 87.210, 439.890 86.953, 427.760 87.056 C 413.453 87.177, 412.711 87.084, 410.162 84.852 C 405.219 80.523, 404.999 79.934, 405.015 71.059 C 405.032 61.678, 405.034 61.673, 409.827 57.734 C 413.131 55.018, 413.257 55, 428.518 55 C 444.364 55, 445.926 54.599, 444.011 51.021 C 442.997 49.126, 441.981 49.003, 427.715 49.042 C 415.294 49.076, 411.933 49.397, 409.413 50.792 M 465.447 50.278 C 465.177 50.981, 465.079 60.544, 465.228 71.528 L 465.500 91.500 484.822 91.772 L 504.145 92.044 503.822 89.772 C 503.505 87.532, 503.292 87.499, 488.900 87.414 C 480.870 87.367, 473.542 87.038, 472.615 86.683 C 471.120 86.109, 470.944 84.105, 471.050 68.816 C 471.157 53.393, 470.984 51.461, 469.393 50.298 C 467.154 48.661, 466.069 48.656, 465.447 50.278 M 522.551 50.592 C 521.183 51.960, 520.996 54.954, 521.229 71.842 L 521.500 91.500 544.822 91.769 L 568.144 92.037 567.822 89.769 C 567.501 87.508, 567.436 87.500, 548.879 87.389 C 538.637 87.327, 529.749 86.963, 529.129 86.579 C 527.667 85.676, 527.656 76.330, 529.116 75.428 C 529.729 75.049, 536.091 74.685, 543.253 74.619 C 556.951 74.494, 559.250 73.700, 557.691 69.636 C 557.153 68.235, 555.151 68, 543.731 68 C 528.713 68, 528 67.705, 528 61.500 C 528 55.087, 528.276 55, 548.700 55 C 565.656 55, 567 54.868, 567 53.200 C 567 49.313, 565.311 49, 544.371 49 C 527.203 49, 523.902 49.241, 522.551 50.592 M 604.114 52.856 C 602.434 54.977, 600.586 57.789, 600.006 59.106 C 599.427 60.423, 597.869 63.300, 596.545 65.500 C 595.221 67.700, 593.441 70.850, 592.589 72.500 C 591.737 74.150, 590.474 76.400, 589.782 77.500 C 589.090 78.600, 586.998 81.913, 585.134 84.862 C 582.416 89.162, 582.017 90.397, 583.122 91.097 C 586.067 92.962, 588.130 91.925, 591.157 87.054 C 594.807 81.182, 595.327 81.034, 611 81.408 C 624.094 81.720, 627.592 82.867, 628.534 87.156 C 629.368 90.951, 634.177 93.696, 636.046 91.444 C 637.399 89.814, 637.196 89.251, 632.459 81.500 C 631.114 79.300, 629.305 76.150, 628.438 74.500 C 627.572 72.850, 625.772 69.700, 624.440 67.500 C 623.107 65.300, 621.433 62.375, 620.719 61 C 614.003 48.060, 609.616 45.909, 604.114 52.856 M 657.277 50.166 C 655.725 52.037, 655.263 89.663, 656.774 91.174 C 657.374 91.774, 658.571 91.995, 659.433 91.664 C 660.773 91.150, 661 88.527, 661 73.531 C 661 62.613, 661.374 56, 661.991 56 C 663.122 56, 669 61.908, 669 63.044 C 669 63.456, 672.487 68.309, 676.750 73.829 C 681.013 79.349, 685.824 85.696, 687.442 87.933 C 690.082 91.583, 690.817 92, 694.610 92 C 702.367 92, 702 93.002, 702 71.827 C 702 53.025, 701.391 49, 698.544 49 C 696.364 49, 695.788 54, 696.144 69.814 C 696.577 89.038, 695.937 90.124, 689.704 80.752 C 687.783 77.863, 685.138 74.347, 683.828 72.938 C 682.517 71.529, 679.815 67.929, 677.824 64.938 C 669.270 52.089, 660.759 45.970, 657.277 50.166 M 772.975 51.565 C 771.923 54.333, 771.606 87.809, 772.607 90.418 C 773.332 92.307, 776.375 92.505, 777.697 90.750 C 778.261 90.001, 778.367 83.089, 777.962 73.500 C 777.590 64.700, 777.456 57.189, 777.665 56.809 C 778.596 55.115, 783.906 59.893, 788.321 66.397 C 793.123 73.472, 801.045 84.020, 805.485 89.250 C 807.460 91.576, 808.595 92, 812.851 92 C 815.618 92, 818.190 91.501, 818.567 90.891 C 818.944 90.282, 819.201 81.190, 819.137 70.688 C 819.017 50.762, 818.399 47.865, 814.578 49.332 C 813.229 49.849, 813 52.328, 813 66.387 C 813 75.434, 812.727 83.548, 812.393 84.418 C 811.505 86.732, 809.242 86.349, 808.443 83.750 C 808.063 82.513, 807.020 80.730, 806.126 79.789 C 804.344 77.914, 803.185 76.431, 796.527 67.500 C 784.887 51.888, 781.929 49, 777.574 49 C 774.605 49, 773.774 49.463, 772.975 51.565 M 850.922 50.810 C 841.181 57.197, 840.388 58.839, 840.516 72.358 L 840.619 83.216 845.559 87.570 L 850.500 91.923 866.173 91.962 C 883.494 92.004, 881.029 92.715, 890.236 85.028 C 891.644 83.853, 892 81.985, 892 75.778 L 892 68 881.082 68 C 875.077 68, 869.551 67.765, 868.803 67.478 C 866.236 66.493, 863.600 69.385, 864.882 71.780 C 865.945 73.766, 866.562 73.863, 874.538 73.300 C 882.145 72.763, 883.216 72.903, 884.524 74.599 C 886.522 77.193, 885.499 80.909, 881.867 84.250 C 878.938 86.943, 878.619 87, 866.405 87 L 853.933 87 850.372 83.439 L 846.811 79.878 847.156 70.469 C 847.498 61.118, 847.521 61.042, 851 58.071 L 854.500 55.081 871.316 55.041 L 888.133 55 887.816 52.250 L 887.500 49.500 870.500 49.310 C 856.009 49.148, 853.120 49.370, 850.922 50.810 M 914.101 50.378 C 913.306 51.337, 913.040 57.816, 913.228 71.628 L 913.500 91.500 916.500 91.500 L 919.500 91.500 920 74.500 C 920.540 56.149, 921.011 54.898, 925.181 60.760 C 926.457 62.553, 928.845 65.928, 930.490 68.260 C 934.351 73.736, 945.482 87.975, 947.716 90.295 C 949.022 91.651, 950.671 92.017, 954.472 91.795 L 959.500 91.500 959.770 71.389 C 960.064 49.561, 959.617 47.529, 955.064 49.966 C 953.103 51.015, 953 51.918, 953 68.109 C 953 83.376, 952.829 85.113, 951.357 84.823 C 950.454 84.645, 949.216 83.602, 948.607 82.504 C 947.998 81.407, 945.813 78.419, 943.750 75.866 C 941.688 73.312, 940 70.822, 940 70.333 C 940 69.845, 939.212 68.685, 938.250 67.757 C 935.500 65.106, 933.576 62.812, 930.483 58.500 C 924.808 50.589, 922.877 49, 918.935 49 C 916.906 49, 914.730 49.620, 914.101 50.378 M 984.485 51.250 C 984.181 52.487, 984.060 62.050, 984.216 72.500 L 984.500 91.500 1003.773 91.772 C 1020.788 92.012, 1023.119 91.853, 1023.669 90.421 C 1024.770 87.551, 1021.803 86.972, 1006.763 87.120 C 997.374 87.213, 991.548 86.870, 990.710 86.175 C 989.700 85.336, 989.473 81.517, 989.730 69.691 C 989.921 60.885, 989.633 53.165, 989.057 51.649 C 987.826 48.412, 985.238 48.186, 984.485 51.250 M 283.848 58.143 C 281.404 61.501, 279.846 64.111, 276.537 70.392 C 273.934 75.331, 275.021 75.965, 286.128 75.985 C 296.639 76.003, 298.624 74.688, 295.157 69.999 C 293.971 68.394, 293 66.682, 293 66.194 C 293 65.705, 292.100 64.268, 291 63 C 289.900 61.732, 289 59.918, 289 58.969 C 289 55.170, 286.324 54.741, 283.848 58.143 M 338.750 56.039 C 337.375 56.872, 337 58.476, 337 63.515 C 337 71.734, 337.494 72, 352.773 72 C 364.215 72, 364.819 71.893, 368.303 69.250 C 372.847 65.802, 373.153 62.263, 369.250 58.295 C 366.551 55.552, 366.258 55.495, 353.500 55.239 C 345.627 55.081, 339.810 55.396, 338.750 56.039 M 607.395 58.750 C 605.445 61.672, 603.261 65.413, 600.355 70.809 C 597.945 75.284, 599.227 75.969, 610 75.969 C 622.616 75.969, 622.757 75.743, 616.528 65.500 C 613.965 61.286, 613.295 59.944, 612.531 57.500 C 611.798 55.153, 609.407 55.735, 607.395 58.750 M 137.465 117.869 C 135.329 120.004, 138.025 123, 142.082 123 C 143.137 123, 144.027 123.338, 144.061 123.750 C 144.495 129.104, 144.209 141.852, 143.634 142.783 C 143.220 143.452, 141.769 144, 140.410 144 C 138.078 144, 136.067 146.400, 137.335 147.669 C 138.385 148.719, 154.052 148.348, 155.153 147.247 C 156.687 145.713, 155.288 144, 152.500 144 C 149.154 144, 148.661 142.703, 148.527 133.558 C 148.384 123.775, 148.601 123, 151.485 123 C 154.204 123, 156.254 120.826, 155.467 118.775 C 154.926 117.364, 138.783 116.551, 137.465 117.869 M 172.492 119.372 C 171.248 121.270, 170.994 124.311, 171.219 134.622 C 171.483 146.740, 171.618 147.500, 173.500 147.500 C 175.355 147.500, 175.536 146.667, 176 136.011 C 176.420 126.353, 176.764 124.471, 178.158 124.205 C 179.282 123.991, 180.016 124.792, 180.437 126.694 C 180.778 128.237, 182.732 131.399, 184.779 133.719 C 186.825 136.040, 190.194 140.202, 192.265 142.969 C 195.536 147.339, 196.491 148, 199.540 148 C 204.145 148, 204.867 146.023, 204.887 133.354 C 204.906 121.633, 204.327 118, 202.440 118 C 200.351 118, 199.678 122.191, 200.214 131.848 C 200.985 145.716, 199.559 146.433, 192.370 135.793 C 189.691 131.829, 186.040 126.991, 184.255 125.043 C 182.470 123.094, 181.007 121.174, 181.005 120.776 C 181 120.097, 175.725 117, 174.573 117 C 174.283 117, 173.347 118.067, 172.492 119.372 M 217.554 118.719 C 216.429 121.652, 218.969 123, 225.622 123 C 229.996 123, 232.036 123.393, 232.115 124.250 C 232.179 124.938, 232.163 130, 232.080 135.500 C 231.923 145.868, 232.691 148.716, 235.367 147.689 C 236.646 147.199, 236.988 144.908, 237.218 135.294 L 237.500 123.500 244.500 123 C 251.167 122.524, 251.500 122.381, 251.500 120 L 251.500 117.500 234.822 117.342 C 220.654 117.208, 218.055 117.415, 217.554 118.719 M 267.250 118.017 C 266.012 118.522, 264.979 119.513, 264.954 120.218 C 264.320 137.792, 264.444 145.213, 265.391 146.440 C 266.816 148.286, 294.357 149.043, 296.116 147.284 C 298.613 144.787, 295.716 144, 284.023 144 C 270.054 144, 269 143.716, 269 139.952 C 269 136.134, 270.177 135.622, 278.434 135.848 C 286.986 136.082, 291 135.313, 291 133.440 C 291 131.609, 288.324 131.055, 278 130.751 L 269.500 130.500 269.500 127 L 269.500 123.500 282.500 123 L 295.500 122.500 295.500 120 L 295.500 117.500 282.500 117.299 C 275.350 117.188, 268.488 117.511, 267.250 118.017 M 313.544 118.599 C 311.066 121.077, 311.701 147.322, 314.250 147.811 C 315.601 148.070, 316 147.465, 316 145.155 C 316 139.343, 316.510 139, 325.165 139 L 333.117 139 337.212 143.500 C 339.465 145.975, 341.887 148, 342.595 148 C 344.927 148, 345.243 145.889, 343.241 143.676 C 339.101 139.099, 338.946 137.826, 342.088 134.247 C 347.215 128.408, 345.548 122.880, 337.264 118.250 C 333.775 116.300, 315.575 116.568, 313.544 118.599 M 360.505 117.828 C 359.069 119.264, 360.366 121.811, 363.222 123.163 L 366.445 124.689 366.127 133.095 C 365.761 142.756, 365.798 142.657, 361.942 144.278 C 359.910 145.133, 359.288 145.896, 359.871 146.820 C 361.153 148.850, 375.604 148.824, 377.640 146.789 C 379.061 145.368, 378.873 145.113, 375.603 144.034 L 372 142.845 372 133.336 L 372 123.826 375 122.694 C 378.005 121.560, 378.609 120.413, 377.235 118.450 C 376.508 117.412, 361.480 116.853, 360.505 117.828 M 395.722 118.587 L 392.944 120.093 393.222 133.797 L 393.500 147.500 408 148.036 C 422.694 148.579, 426 148.106, 426 145.465 C 426 144.262, 423.896 143.998, 414.250 143.986 C 399.971 143.970, 398 143.540, 398 140.440 C 398 136.753, 401.366 135.079, 407.506 135.713 C 414.131 136.397, 420 135.367, 420 133.522 C 420 131.480, 416.897 130.831, 408.602 131.140 C 400.490 131.442, 398 130.349, 398 126.485 C 398 123.360, 399.500 123, 412.523 123 C 424.210 123, 425.620 122.528, 424.497 118.991 C 423.909 117.138, 422.986 117.003, 411.183 117.040 C 401.842 117.070, 397.768 117.477, 395.722 118.587 M 492 118.293 C 489.538 119.537, 489.496 119.767, 489.222 133.299 C 488.986 144.927, 489.180 147.132, 490.484 147.632 C 492.918 148.566, 495.073 146.141, 494.355 143.278 C 493.487 139.818, 495.201 139.033, 503.665 139.015 L 510.830 139 514.791 143.500 C 518.643 147.876, 522.123 149.228, 523.558 146.907 C 523.929 146.305, 522.373 143.917, 520.098 141.600 L 515.963 137.387 519.982 134.015 C 526.093 128.888, 524.632 122.964, 516.176 118.591 C 512.335 116.605, 495.745 116.400, 492 118.293 M 565.625 118.862 C 564.189 120.449, 563.981 122.702, 564.220 134.112 L 564.500 147.500 579 148 C 595.428 148.566, 596 148.496, 596 145.893 C 596 144.134, 595.091 144, 583.122 144 C 569.023 144, 567.201 143.321, 568.407 138.513 C 569.019 136.074, 569.291 136, 577.585 136 C 587.057 136, 590.902 134.792, 588.942 132.430 C 588.068 131.377, 585.299 131, 578.445 131 C 568.428 131, 566.890 130.072, 568.500 125 C 569.089 123.143, 570.013 123, 581.445 123 C 594.277 123, 596.787 122.214, 595.410 118.627 C 594.408 116.014, 568.014 116.223, 565.625 118.862 M 611.615 119.465 C 610.346 121.401, 610 124.604, 610 134.397 C 610 145.968, 610.143 146.911, 611.991 147.497 C 615.510 148.614, 616 147.202, 616 135.941 C 616 126.999, 616.268 125, 617.465 125 C 618.270 125, 619.374 125.831, 619.918 126.847 C 621.513 129.827, 634.066 146.421, 635.337 147.229 C 636.994 148.283, 642.774 148.175, 643.452 147.077 C 644.527 145.337, 644.330 119.930, 643.233 118.833 C 640.785 116.385, 640 119.355, 640 131.059 C 640 138.479, 639.615 143, 638.984 143 C 637.629 143, 633.687 138.563, 629.983 132.871 C 625.913 126.615, 616.706 117, 614.786 117 C 613.930 117, 612.503 118.109, 611.615 119.465 M 688.500 118.179 C 687.400 118.812, 686.195 119.792, 685.821 120.358 C 684.580 122.241, 685.042 145.790, 686.342 146.869 C 688.053 148.289, 716.754 148.646, 718.135 147.265 C 720.630 144.770, 717.683 144, 705.641 144 C 693.066 144, 691 143.417, 691 139.871 C 691 136.245, 693.421 135.300, 701.661 135.711 C 709.984 136.126, 712.698 135.262, 711.651 132.533 C 711.107 131.115, 709.641 130.903, 701.934 131.126 C 692.218 131.406, 691.047 130.879, 691.015 126.219 C 690.995 123.136, 692.128 122.852, 705.198 122.663 L 716.500 122.500 716.500 120 L 716.500 117.500 703.500 117.265 C 695.114 117.113, 689.790 117.438, 688.500 118.179 M 774.331 118.579 C 773.051 121.915, 774.777 123, 781.362 123 C 789.179 123, 789 122.668, 789 137.155 C 789 147.084, 789.169 148.114, 790.750 147.812 C 792.266 147.522, 792.567 145.878, 793 135.489 L 793.500 123.500 800.500 123 C 807.167 122.524, 807.500 122.381, 807.500 120 L 807.500 117.500 791.188 117.329 C 777.902 117.190, 774.775 117.422, 774.331 118.579 M 823.222 118.041 C 820.982 118.941, 820.949 119.190, 821.222 133.228 L 821.500 147.500 836 148.028 C 852.300 148.622, 853 148.534, 853 145.893 C 853 144.144, 852.107 143.999, 841.250 143.986 C 826.454 143.969, 825 143.607, 825 139.942 C 825 136.060, 826.289 135.547, 835.390 135.811 C 844.217 136.068, 847 135.514, 847 133.500 C 847 131.477, 844.177 130.922, 835.042 131.147 C 826.121 131.366, 824.759 130.651, 825.241 126 C 825.500 123.504, 825.520 123.499, 838.500 123 L 851.500 122.500 851.816 119.750 L 852.133 117 838.816 117.063 C 831.492 117.098, 824.475 117.538, 823.222 118.041 M 869.655 118.829 C 867.234 121.504, 867.187 146.751, 869.601 147.677 C 871.568 148.432, 873.080 146.217, 872.448 143.508 C 871.511 139.489, 873.174 138.761, 882.412 139.142 C 888.751 139.404, 891.317 139.902, 891.982 141 C 894.250 144.745, 897.348 148, 898.644 148 C 901.313 148, 901.298 145.006, 898.617 142.521 C 895.341 139.484, 895.310 137.369, 898.500 134.412 C 903.536 129.745, 901.112 122.127, 893.316 118.122 C 889.460 116.141, 871.605 116.674, 869.655 118.829 M 917 119.710 C 917 121.442, 917.787 122.378, 919.845 123.096 L 922.690 124.088 922.505 133.257 L 922.319 142.427 919.160 143.716 C 915.833 145.074, 915.349 145.949, 917.009 147.609 C 918.234 148.834, 933.002 148.398, 934.302 147.098 C 935.578 145.822, 934.262 144, 932.063 144 C 928.700 144, 927.906 141.599, 928.210 132.349 L 928.500 123.500 931.750 122.543 C 935.091 121.560, 935.956 119.732, 933.750 118.316 C 933.063 117.875, 929.013 117.469, 924.750 117.415 C 917.214 117.319, 917 117.383, 917 119.710 M 952.289 118.756 C 950.208 120.398, 950.080 121.267, 950.091 133.663 C 950.101 144.074, 950.399 146.939, 951.517 147.368 C 954.948 148.685, 982.214 148.271, 983.068 146.890 C 984.556 144.483, 982.748 144.069, 969.482 143.782 L 956.500 143.500 956.178 140.690 C 955.639 135.994, 957.074 135.277, 965.979 135.793 C 974.732 136.299, 978.145 135.085, 975.825 132.289 C 974.916 131.194, 972.613 130.913, 966.321 131.130 C 957.126 131.448, 955.670 130.766, 956.172 126.372 L 956.500 123.500 969 123 L 981.500 122.500 981.500 120 L 981.500 117.500 968 117.256 C 956.432 117.047, 954.184 117.262, 952.289 118.756 M 1048.500 118.195 C 1045.226 120.052, 1045.031 120.949, 1045.015 134.281 C 1045.002 145.201, 1045.238 147.154, 1046.636 147.691 C 1049.328 148.724, 1051.500 146.579, 1051.500 142.888 L 1051.500 139.500 1059.133 139.210 C 1066.513 138.930, 1066.870 139.024, 1069.883 142.037 C 1071.597 143.751, 1073 145.525, 1073 145.979 C 1073 146.433, 1074.370 147.282, 1076.045 147.866 C 1080.799 149.523, 1081.089 146.700, 1076.634 142.137 C 1072.159 137.555, 1072.153 137.176, 1076.500 133.707 C 1082.204 129.156, 1080.887 123.842, 1072.785 118.717 C 1069.571 116.684, 1051.836 116.303, 1048.500 118.195 M 440.630 120.250 C 440.299 121.487, 440.021 126.635, 440.014 131.688 C 440.001 140.328, 440.164 141.056, 442.750 143.875 C 446.888 148.386, 449.697 148.932, 464.570 148.114 C 465.708 148.051, 468.150 146.652, 469.995 145.004 L 473.350 142.009 473.482 131.431 C 473.570 124.396, 473.199 120.293, 472.374 119.177 C 470.143 116.158, 469.174 119.172, 468.832 130.202 C 468.614 137.233, 468.056 141.348, 467.205 142.197 C 466.445 142.956, 462.729 143.633, 458.205 143.838 C 451.504 144.141, 450.142 143.904, 447.750 142.020 C 445.101 139.934, 445 139.513, 445 130.509 C 445 125.369, 444.727 120.452, 444.393 119.582 C 443.504 117.266, 441.326 117.652, 440.630 120.250 M 732 119.791 C 732 120.776, 733.751 123.192, 735.891 125.160 C 743.897 132.521, 743.910 132.825, 736.514 139.577 C 729.663 145.831, 728.563 148, 732.241 148 C 733.682 148, 736.505 145.860, 740.156 142 C 743.276 138.700, 746.171 136, 746.587 136 C 747.004 136, 749.790 138.504, 752.778 141.565 C 758.933 147.869, 762.718 149.899, 763.674 147.408 C 764.082 146.344, 762.300 143.977, 758.138 140.052 C 754.762 136.870, 752 133.506, 752 132.577 C 752 131.647, 754.250 128.730, 757 126.093 C 761.974 121.324, 763.396 118, 760.463 118 C 759.617 118, 757.030 119.944, 754.713 122.320 C 747.599 129.614, 747.346 129.634, 740.835 123.424 C 735.004 117.863, 732 116.627, 732 119.791 M 996.977 120.043 C 996.252 121.398, 995.946 125.812, 996.160 131.858 C 996.494 141.349, 996.556 141.563, 999.898 144.755 C 1003.046 147.761, 1003.820 148.008, 1010.398 148.106 C 1022.612 148.288, 1023.271 148.141, 1026.750 144.464 C 1029.988 141.042, 1030 140.990, 1030 130.637 C 1030 122.493, 1029.666 119.968, 1028.458 118.965 C 1025.876 116.822, 1025.180 118.979, 1024.832 130.202 C 1024.614 137.233, 1024.056 141.348, 1023.205 142.197 C 1022.444 142.957, 1018.740 143.629, 1014.205 143.830 C 1006.834 144.156, 1006.383 144.047, 1003.789 141.321 C 1001.268 138.672, 1001.058 137.777, 1000.789 128.567 C 1000.492 118.387, 999.295 115.711, 996.977 120.043 M 1052.460 124.044 C 1050.615 126.083, 1050.596 128.978, 1052.410 131.568 C 1054.503 134.557, 1069.120 134.324, 1072.191 131.253 C 1074.833 128.612, 1074.007 124.250, 1070.735 123.558 C 1064.270 122.193, 1053.886 122.469, 1052.460 124.044 M 316.421 125.457 C 316.082 126.808, 316.212 129.137, 316.711 130.632 C 317.598 133.294, 317.793 133.352, 326.058 133.434 C 336.413 133.538, 340 132.130, 340 127.962 C 340 123.870, 337.647 123, 326.585 123 C 317.280 123, 317.022 123.062, 316.421 125.457 M 494.537 124.605 C 492.805 126.338, 493.239 129.360, 495.610 132.070 C 497.295 133.995, 511.225 134.050, 514.750 132.145 C 517.245 130.797, 517.846 126.246, 515.800 124.200 C 513.868 122.268, 496.545 122.598, 494.537 124.605 M 872.387 125.593 C 871.950 127.336, 872.223 129.307, 873.124 130.913 C 874.480 133.327, 875.003 133.465, 882.924 133.482 C 893.342 133.504, 897.603 131.538, 896.516 127.208 C 895.562 123.405, 895.964 123.535, 883.960 123.163 L 873.082 122.825 872.387 125.593"  fill="currentColor" fill-rule="evenodd"/>
</svg>